# xmcd CD database file
#
# Track frame offsets:
#	150
#	17472
#	31774
#	46173
#	65100
#	84108
#	100761
#	115548
#	132792
#	150053
#
# Disc length: 2228 seconds
#
# Revision: 0
# Processed by: cddbd v1.4PL0 Copyright (c) Steve Scherf et al.
# Submitted via: Feurio! 1.65 - http://www.feurio.com
#
DISCID=5f08b20a
DTITLE=The Larkins - The Larkins
DYEAR=2003
DGENRE=country
TTITLE0=Lay Your Memory Down
TTITLE1=One Without The Other
TTITLE2=Above It All
TTITLE3=Steady As The Rain
TTITLE4=Head Over Heels
TTITLE5=I Still Believed You Loved Me
TTITLE6=Gone
TTITLE7=Jesus, Daddy And You
TTITLE8=Go
TTITLE9=Kiss And Tell
EXTD=
EXTT0=
EXTT1=
EXTT2=
EXTT3=
EXTT4=
EXTT5=
EXTT6=
EXTT7=
EXTT8=
EXTT9=
PLAYORDER=
